# AST/ASF file generated using VICON BodyLanguage
# -----------------------------------------------
:version 1.10
:name VICON
:units
  mass 1.0
  length 0.45
  angle deg
:documentation
   .ast/.asf automatically generated from VICON data using
   VICON BodyBuilder and BodyLanguage model FoxedUp or BRILLIANT.MOD
:root
   order TX TY TZ RX RY RZ
   axis XYZ
   position 0 0 0  
   orientation 0 0 0 
:bonedata
  begin
     id 1 
     name lhipjoint
     direction 0.661853 -0.702389 0.261917 
     length 2.64193 
     axis 0 0 0  XYZ
  end
  begin
     id 2 
     name lfemur
     direction 0.34202 -0.939693 0  
     length 7.01722  
     axis 0 0 20  XYZ
    dof rx ry rz
    limits (-160.0 20.0)
           (-70.0 70.0)
           (-60.0 70.0)
  end
  begin
     id 3 
     name ltibia
     direction 0.34202 -0.939693 0   
     length 8.25008   
     axis 0 0 20   XYZ
    dof rx
    limits (-10.0 170.0)
  end
  begin
     id 4 
     name lfoot
     direction 0.0709916 -0.195048 0.978221   
     length 2.31941   
     axis -90 7.62852e-016 20   XYZ
    dof rx rz
    limits (-45.0 90.0)
           (-70.0 20.0)
  end
  begin
     id 5 
     name ltoes
     direction 1.53586e-011 -4.22017e-011 1   
     length 1.16486   
     axis -90 7.62852e-016 20   XYZ
    dof rx
    limits (-90.0 20.0)
  end
  begin
     id 6 
     name rhipjoint
     direction -0.638185 -0.721362 0.268992   
     length 2.57244  
     axis 0 0 0  XYZ 
  end
  begin
     id 7 
     name rfemur
     direction -0.34202 -0.939693 0   
     length 7.07017   
     axis 0 0 -20   XYZ
    dof rx ry rz
    limits (-160.0 20.0)
           (-70.0 70.0)
           (-70.0 60.0)
  end
  begin
     id 8 
     name rtibia
     direction -0.34202 -0.939693 0   
     length 8.20386   
     axis 0 0 -20   XYZ
    dof rx
    limits (-10.0 170.0)
 end
 begin
     id 9 
     name rfoot
     direction -0.0822429 -0.225961 0.970658   
     length 2.32215  
     axis -90 -7.62852e-016 -20   XYZ
    dof rx rz
    limits (-45.0 90.0)
           (-20.0 70.0)
  end
  begin
     id 10 
     name rtoes
     direction -1.53597e-011 -4.21689e-011 1   
     length 1.16333   
     axis -90 -7.62852e-016 -20   XYZ
    dof rx
    limits (-90.0 20.0)
  end
  begin
     id 11 
     name lowerback
     direction -0.0131557 0.998589 -0.0514484   
     length 2.14993   
     axis 0 0 0   XYZ
    dof rx ry rz
    limits (-20.0 45.0)
           (-30.0 30.0)
           (-30.0 30.0)
  end
  begin
     id 12 
     name upperback
     direction -0.000776481 0.999993 0.00352685   
     length 2.15301   
     axis 0 0 0   XYZ
    dof rx ry rz
    limits (-20.0 45.0)
           (-30.0 30.0)
           (-30.0 30.0)
  end
  begin
     id 13 
     name thorax
     direction 0.00438186 0.999609 0.0276143   
     length 2.15424   
     axis 0 0 0   XYZ
    dof rx ry rz
    limits (-20.0 45.0)
           (-30.0 30.0)
           (-30.0 30.0)
  end
  begin
     id 14 
     name lowerneck
     direction -0.0488006 0.998094 0.0377807   
     length 1.90481   
     axis 0 0 0   XYZ
    dof rx ry rz
    limits (-20.0 45.0)
           (-30.0 30.0)
           (-30.0 30.0)
  end
  begin
     id 15 
     name upperneck
     direction 0.0443769 0.990702 -0.12861   
     length 1.91305   
     axis 0 0 0   XYZ
    dof rx ry rz
    limits (-20.0 45.0)
           (-30.0 30.0)
           (-30.0 30.0)
  end
  begin
     id 16
     name head
     direction 0.0165599 0.998647 -0.0492982  
     length 1.92369  
     axis 0 0 0   XYZ
    dof rx ry rz
    limits (-20.0 45.0)
           (-30.0 30.0)
           (-30.0 30.0)
  end
  begin
     id 17 
     name lclavicle
     direction 0.911936 0.410197 -0.0105506  
     length 3.52622  
     axis 0 0 0   XYZ
    dof ry rz
    limits (-20.0 10.0)
           (0.0 20.0)
  end
  begin
     id 18 
     name lhumerus
     direction 1 -4.48974e-011 -2.48591e-028   
     length 5.47651   
     axis 180 -30 -90   XYZ
    dof rx ry rz
    limits (-60.0 90.0)
           (-90.0 90.0)
           (-90.0 90.0)
  end
  begin
     id 19
     name lradius
     direction 1 -4.48938e-011 -4.40099e-027   
     length 3.09058   
     axis 180 -30 -90   XYZ
    dof rx
    limits (-10.0 170.0)
  end
  begin
     id 20
     name lwrist
     direction 1 -4.49042e-011 -2.99852e-027   
     length 1.54529   
     axis 1.95339e-015 90 90   XYZ
    dof ry
    limits (-180.0 0.0)
 end
  begin
     id 21 
     name lhand
     direction 1 -4.48815e-011 -5.98193e-027   
     length 0.771611   
     axis 3.82337e-015 90 90   XYZ
    dof rx rz
    limits (-90.0 90.0)
           (-45.0 45.0)
  end
  begin
     id 22 
     name lfingers
     direction 1 -4.49034e-011 -1.1993e-026   
     length 0.622093   
     axis 7.64668e-015 90 90   XYZ
    dof rx
    limits (0.0 90.0)
  end
  begin
     id 23
     name lthumb
     direction 0.707107 -6.34867e-011 0.707107   
     length 0.893204   
     axis -90 45 -1.62303e-014   XYZ
    dof rx rz
    limits (-45.0 45.0)
           (-45.0 45.0)
  end
  begin
     id 24 
     name rclavicle
     direction -0.93442 0.355634 -0.0195692   
     length 3.62463  
     axis 0 0 0   XYZ 
    dof ry rz
    limits (-10.0 20.0)
           (-20.0 0.0)
  end
  begin
     id 25 
     name rhumerus
     direction -1 -4.48957e-011 -1.19147e-027  
     length 5.14182   
     axis 180 30 90   XYZ
    dof rx ry rz
    limits (-90.0 60.0)
           (-90.0 90.0)
           (-90.0 90.0)
  end
  begin
     id 26 
     name rradius
     direction -1 -4.48952e-011 -3.81062e-027   
     length 3.35565   
     axis 180 30 90   XYZ
    dof rx
    limits (-10.0 170.0)
  end
  begin
     id 27 
     name rwrist
     direction -1 -4.48973e-011 -2.99621e-027   
     length 1.67782   
     axis 1.95339e-015 -90 -90   XYZ
    dof ry
    limits (-180.0 0.0)
  end
  begin
     id 28
     name rhand
     direction -1 -4.48895e-011 -5.98727e-027   
     length 0.801042   
     axis 3.82337e-015 -90 -90   XYZ
    dof rx rz
    limits (-90.0 90.0)
           (-45.0 45.0)
  end
  begin
     id 29
     name rfingers
     direction -1 -4.49065e-011 -1.19972e-026   
     length 0.645821   
     axis 7.64668e-015 -90 -90   XYZ
    dof rx
    limits (0.0 90.0)
  end
  begin
     id 30
     name rthumb
     direction -0.707107 -6.34957e-011 0.707107   
     length 0.927273   
     axis -90 -45 1.62303e-014   XYZ
    dof rx rz
    limits (-45.0 45.0)
           (-45.0 45.0)
  end
:hierarchy
  begin
    root lhipjoint rhipjoint lowerback
    lhipjoint lfemur
    lfemur ltibia
    ltibia lfoot
    lfoot ltoes
    rhipjoint rfemur
    rfemur rtibia
    rtibia rfoot
    rfoot rtoes
    lowerback upperback
    upperback thorax
    thorax lowerneck lclavicle rclavicle
    lowerneck upperneck
    upperneck head
    lclavicle lhumerus
    lhumerus lradius
    lradius lwrist
    lwrist lhand lthumb
    lhand lfingers
    rclavicle rhumerus
    rhumerus rradius
    rradius rwrist
    rwrist rhand rthumb
    rhand rfingers
  end

#!OML:ASF E:\Style4\Style4.ASF
:FULLY-SPECIFIED
:DEGREES
394
root -0.122742 17.7893 -1.33979 0.760308 -0.410849 2.09913
lowerback 6.89435 1.6121 0.26794
upperback 2.41846 2.15814 -0.127417
thorax -1.35471 1.07787 -0.451847
lowerneck -2.48539 -4.28621 -6.18288
upperneck 5.49128 -5.68545 4.24206
head 2.53009 -2.84927 2.27799
rclavicle 9.74045e-015 -5.56597e-015
rhumerus 52.4593 45.1581 -21.2814
rradius 105.997
rwrist -56.2494
rhand -7.30488 23.9665
rfingers 7.12502
rthumb 18.5776 -5.16639
lclavicle 9.74045e-015 -5.56597e-015
lhumerus 86.2493 -57.7465 -16.9057
lradius 79.6271
lwrist 12.9959
lhand -16.8473 9.72433
lfingers 7.12502
lthumb 9.38269 39.4955
rfemur -13.9447 3.81646 16.8151
rtibia 32.768
rfoot -18.1463 -13.3908
rtoes -11.9044
lfemur -12.4536 -2.40783 -20.5124
ltibia 30.2786
lfoot -18.3963 9.22808
ltoes -16.9311
395
root -0.122922 17.7905 -1.33869 0.744451 -0.437964 2.09922
lowerback 6.90459 1.64833 0.257386
upperback 2.42504 2.20571 -0.120925
thorax -1.35383 1.10157 -0.443216
lowerneck -2.43784 -4.31429 -6.23476
upperneck 5.42121 -5.72699 4.3284
head 2.50613 -2.86904 2.31582
rclavicle -3.61788e-014 1.19271e-015
rhumerus 51.852 44.2845 -22.4728
rradius 104.593
rwrist -56.1853
rhand -8.06446 24.0188
rfingers 7.12502
rthumb 17.8468 -5.18227
lclavicle -3.61788e-014 1.19271e-015
lhumerus 88.2948 -57.9137 -19.1507
lradius 80.8381
lwrist 12.5334
lhand -17.1297 9.81345
lfingers 7.12502
lthumb 9.11015 39.5967
rfemur -13.9027 3.83701 16.8094
rtibia 32.7163
rfoot -18.1101 -13.3695
rtoes -11.833
lfemur -12.4195 -2.39852 -20.5136
ltibia 30.2694
lfoot -18.4451 9.25042
ltoes -16.878
396
root -0.122843 17.7918 -1.33681 0.735897 -0.475584 2.07074
lowerback 6.87475 1.68207 0.257963
upperback 2.44843 2.25086 -0.101942
thorax -1.31356 1.1242 -0.42614
lowerneck -2.44764 -4.33403 -6.23067
upperneck 5.38007 -5.75371 4.35528
head 2.49675 -2.88127 2.323
rclavicle 1.14301e-014 -1.98785e-015
rhumerus 51.2498 43.4776 -23.6614
rradius 103.055
rwrist -56.1077
rhand -8.44269 24.0814
rfingers 7.12502
rthumb 17.4828 -5.15247
lclavicle 1.14301e-014 -1.98785e-015
lhumerus 89.9156 -57.9786 -20.8411
lradius 82.1947
lwrist 12.7415
lhand -16.7276 9.9067
lfingers 7.12502
lthumb 9.49821 39.6726
rfemur -13.8616 3.88106 16.8321
rtibia 32.6641
rfoot -18.1348 -13.3118
rtoes -11.7757
lfemur -12.3982 -2.39878 -20.4883
ltibia 30.2623
lfoot -18.4583 9.36702
ltoes -17.1896
397
root -0.123892 17.7925 -1.33593 0.727389 -0.502324 1.98545
lowerback 6.87438 1.70343 0.302214
upperback 2.46027 2.28292 -0.0562495
thorax -1.30103 1.14023 -0.40624
lowerneck -2.49203 -4.35393 -6.23733
upperneck 5.38891 -5.77701 4.34412
head 2.50908 -2.89283 2.31876
rclavicle -3.57812e-015 4.77083e-015
rhumerus 50.7627 42.7502 -24.7285
rradius 101.363
rwrist -55.943
rhand -8.61585 24.0864
rfingers 7.12502
rthumb 17.3162 -5.16221
lclavicle -3.57812e-015 4.77083e-015
lhumerus 91.3123 -58.0081 -22.2088
lradius 83.5463
lwrist 12.9858
lhand -16.3583 10.1621
lfingers 7.12502
lthumb 9.85449 39.9115
rfemur -13.8198 3.88355 16.9326
rtibia 32.6153
rfoot -18.121 -13.2934
rtoes -12.1465
lfemur -12.3907 -2.42284 -20.3918
ltibia 30.2694
lfoot -18.4713 9.4293
ltoes -17.0878
